<?xml version="1.0" encoding="utf-8"?>
<!-- Generator: Adobe Illustrator 27.5.0, SVG Export Plug-In . SVG Version: 6.00 Build 0)  -->
<svg version="1.1" id="BASE" xmlns="http://www.w3.org/2000/svg"
	xmlns:xlink="http://www.w3.org/1999/xlink" x="0px" y="0px"
	width="350px"
	viewBox="0 0 2122 2122" style="enable-background:new 0 0 2122 2122;" xml:space="preserve">
	<g transform="scale(1.15)" transform-origin="center">
<path style="fill:#F6E0D3;" d="M1404.322,207.906h-0.05c-106.163-42.855-222.107-66.452-343.636-66.452
	c-506.325,0-917.013,409.34-919.158,915.116c-0.05,1.347-0.05,2.744-0.05,4.091c0,487.018,378.76,885.582,857.794,917.211
	c20.306,1.298,40.76,1.996,61.414,1.996c115.544,0,226.148-21.302,328.021-60.267c126.868-48.442,240.316-124.273,333.009-220.16
	c39.462-40.81,75.183-85.311,106.563-132.855c95.837-145.127,151.664-318.991,151.664-505.925
	C1979.893,674.518,1741.772,343.953,1404.322,207.906z"/>
<g>
	<path style="fill:#F0DCCE;" d="M1404.322,207.906h-0.05c-18.459,0.898-36.968,1.746-55.427,2.594
		c-4.041,0.199-8.281,0.448-11.773,2.494c-4.191,2.495-35.671,47.843-16.812,46.746c-91.298,5.388-182.993,10.875-272.446,29.983
		c-13.291,2.819-28.735,9.429-37.088,19.076c-41.316-7.919-83.928-12.063-127.483-12.063c-77.993,0-152.962,13.281-222.881,37.756
		c-5.519-1.568-11.241-2.554-16.903-3.087c-23.108-2.174-50.88,5.597-58.16,27.637l8.341,2.119c-0.238,0.37-0.475,0.74-0.711,1.112
		c-198.717,94.707-346.138,283.629-387.78,510.857c-7.202,12.759-12.534,27.504-14.805,45.644
		c-1.614,12.901-0.362,26.591,4.423,38.574c-1.011,15.68-1.529,31.5-1.529,47.443c0,17.641,0.632,35.128,1.867,52.445
		c-14.509-4.91-29.866-6.465-44.846-3.163c-2.993,0.649-5.937,1.497-8.781,2.495c-0.05,1.347-0.05,2.744-0.05,4.091
		c0,487.018,378.76,885.582,857.794,917.211c-8.88-16.014-13.021-34.124-9.529-52.034c2.245-11.474,7.434-22.5,7.134-34.173
		c-0.997-35.372-46.496-48.742-81.868-50.039c-69.297-2.544-147.572-0.499-196.363-49.74c8.431-9.43,20.604-15.416,33.226-16.363
		c11.125-8.033-2.195-25.394-15.516-28.936c-13.269-3.541-30.831-6.236-33.425-19.705c-1.147-6.087,1.547-12.124,2.544-18.161
		c1.168-6.995,0.081-13.862-2.538-20.305c57.492,15.933,117.955,24.434,180.355,24.434c381.078,0,690.004-317.008,690.004-708.056
		c0-26.358-1.405-52.378-4.141-77.988c0.941,2.344,1.703,4.768,2.246,7.287c1.796,8.232,1.098,17.013,4.24,24.845
		c5.089,12.522,18.459,19.157,30.384,25.593c17.576,9.442,34.151,20.713,49.425,33.534
		c-29.719,44.925-51.599,102.523-69.173,159.941c-24.603,5.069-21.339,34.025-18.272,64.324
		c-9.733,36.399-18.186,70.623-26.358,99.04c-4.106,6.358-8.116,12.768-11.611,19.421c-15.38,29.268-20.603,63.754-14.58,96.265
		c0.988,5.332,2.32,10.661,4.015,15.874c0.398,2.304,0.859,4.604,1.393,6.897c8.884,38.21,43.321,73.205,82.372,69.469
		c-18.067,30.684-31.955,63.823-41.193,98.21c-12.762-3.243-25.704-5.343-38.785-4.638c-22.251,1.247-45.349,12.472-54.328,32.828
		c-11.725,26.791,4.09,57.373,3.341,86.607c-1.447,54.679-40.21,55.477-71.441,81.17c-2.195,1.796-4.289,3.692-6.385,5.737
		c-16.612,16.363-9.728,45.299-5.737,70.393c126.868-48.442,240.316-124.273,333.009-220.16c-8.165-3.493-16.699-6.448-25.118-9.169
		c26.217-22.543,49.048-49.993,69.846-77.698c19.669-26.2,38.29-53.47,55.643-81.622c2.814,11.856,5.262,23.835,6.192,35.633
		c95.837-145.127,151.664-318.991,151.664-505.925C1979.893,674.518,1741.772,343.953,1404.322,207.906z M1237.181,396.861
		c35.568,6.236,70.307,14.901,102.584,30.806c10.877,5.388,22.8,18.958,14.219,27.589c-2.245,2.295-5.439,3.343-8.083,5.188
		c-4.363,3.099-6.334,7.965-6.414,13.163C1307.83,444.954,1273.595,419.234,1237.181,396.861z M1387.26,501.802
		c23.747-0.1,48.242-0.199,70.045,9.13c21.801,9.279,40.36,30.582,38.663,54.278c-0.848,11.525-6.336,22.8-4.639,34.274
		c3.942,26.591,41.01,34.324,53.182,58.321c12.888,25.408-6.482,50.188-23.768,75.593
		c-35.551-87.834-87.837-166.738-152.776-232.521C1374.293,501.816,1380.9,501.851,1387.26,501.802z M1803.353,921.576
		c11.201-54.531,39.12-109.643,16.744-159.502c26.41,21.416,44.254,52.59,50.817,85.888c-8.454-0.211-16.76,1.79-23.922,6.578
		C1824.666,869.463,1821.839,903.669,1803.353,921.576z"/>
	<path style="fill:#E2CFC3;" d="M989.693,1925.837c2.245-11.474,7.434-22.5,7.134-34.173c-0.997-35.372-46.496-48.742-81.868-50.039
		c-69.297-2.544-147.572-0.499-196.363-49.74c8.431-9.43,20.604-15.416,33.226-16.363c11.125-8.033-2.195-25.394-15.516-28.936
		c-13.269-3.541-30.831-6.236-33.425-19.705c-1.147-6.087,1.547-12.124,2.544-18.161c1.168-6.995,0.081-13.862-2.538-20.305
		c-4.537-11.156-13.678-21.035-23.704-28.088c-15.865-11.175-34.524-18.009-49.589-30.182
		c-59.818-48.193-42.756-158.498-109.059-197.262c-18.458-10.776-41.108-14.019-57.572-27.638
		c-19.007-15.765-25.643-41.758-39.661-62.113c-14.02-20.354-45.749-34.223-62.361-15.914c3.94-31.031-11.525-60.815-26.492-88.254
		c-14.068-25.742-28.137-51.535-42.207-77.328c-15.315-28.087-31.03-56.673-54.478-78.475
		c-12.175-11.318-26.918-20.596-42.659-25.922c-14.509-4.91-29.866-6.465-44.846-3.163c-2.993,0.649-5.937,1.497-8.781,2.495
		c-0.05,1.347-0.05,2.744-0.05,4.091c0,487.018,378.76,885.582,857.794,917.211C990.341,1961.858,986.201,1943.748,989.693,1925.837
		z"/>
	<path style="fill:#E2CFC3;" d="M208.73,977.847c8.949,8.079,20.427,12.643,31.503,17.405
		c31.244,13.433,63.371,31.843,77.202,62.913c7.668,17.224,8.831,36.579,14.191,54.655c5.362,18.077,17.068,36.463,35.471,40.563
		c16.122,3.591,34.138-6.437,39.578-22.032c4.757-13.632,0.931-30.208,9.598-41.755c10.263-13.675,31.297-11.976,46.131-20.479
		c16.424-9.415,22.831-29.927,24.376-48.796c3.988-48.676-16.311-98.746-53.069-130.903c-10.804-9.451-23.162-17.707-30.655-29.949
		c-12.531-20.468-8.635-47.115-17.597-69.378c-10.068-25.01-34.501-40.719-57.503-54.785c-2.116-1.294-4.277-2.607-6.687-3.193
		c-12.417-3.021-20.021,12.687-24.737,24.564c-20.928,52.704-66.935,73.135-91.385,116.455
		c-7.202,12.759-12.534,27.504-14.805,45.644c-1.614,12.901-0.362,26.591,4.423,38.574
		C197.87,965.129,202.464,972.19,208.73,977.847z"/>
	<path style="fill:#E2CFC3;" d="M744.292,1195.376c-17.325,0.224-33.303,13.585-50.373,10.618
		c-38.708-6.727-59.026-40.237-104.188-37.311c-27.204,1.762-51.495,10.852-67.959,33.315
		c-34.863,47.568-31.12,150.648,13.583,187.55c50.357,41.57,102.527,90.051,113.191,154.474
		c3.083,18.624,5.474,42.057,23.259,48.384c14.931,5.311,34.142-5.269,46.206,5.008c4.713,4.015,6.832,10.274,10.8,15.025
		c14.85,17.78,45.434,5.013,57.549-14.734c12.113-19.746,15.154-44.427,29.308-62.766c17.061-22.106,46.794-30.636,66.139-50.774
		c22.22-23.13,27.219-57.354,31.127-89.189c4.32-35.196,6.429-76.601-20.298-99.906c-20.605-17.968-51.856-18.457-73.663-34.944
		C791.792,1239.581,778.362,1194.938,744.292,1195.376z"/>
	<path style="fill:#E2CFC3;" d="M518.733,916.095c16.988,4.373,31.626-14.92,32.482-32.44c0.855-17.521-6.358-34.53-6.796-52.066
		c-0.958-38.365,30.079-71.712,30.543-110.087c0.185-15.285-4.565-30.355-3.944-45.628c1.388-34.15,28.617-61.604,37.746-94.54
		c10.789-38.928-8.557-84.865-45.212-101.84c-117.917-54.608-154.286,139.72-149.644,211.188
		c4.819,74.173,44.508,140.939,83.129,204.448C502.403,903.954,508.73,913.52,518.733,916.095z"/>
	<path style="fill:#E2CFC3;" d="M575.599,412.085c2.243,18.26,24.486,34.118,39.358,23.289c4.735-3.447,7.711-8.778,11.909-12.861
		c16.872-16.416,48.519-9.176,63.944-26.958c10.778-12.426,7.878-32.795-3.107-45.037c-7.187-8.01-16.9-13.059-27.342-16.025
		c-5.519-1.568-11.241-2.554-16.903-3.087c-23.108-2.174-50.88,5.597-58.16,27.637l8.341,2.119c-0.238,0.37-0.475,0.74-0.711,1.112
		C583.218,377.468,573.409,394.26,575.599,412.085z"/>
	<path style="fill:#E2CFC3;" d="M1123.84,1381.908c11.912-9.127,18.29-23.635,23.136-37.837c7.751-22.709,12.865-47.03,8.827-70.686
		c-6.356-37.222-45.247-49.663-80.367-40.608c-48.749,12.569-50.397,103.463-23.745,136.514
		C1068.662,1390.334,1102.382,1398.348,1123.84,1381.908z"/>
	<path style="fill:#E2CFC3;" d="M1404.322,207.906h-0.05c-18.459,0.898-36.968,1.746-55.427,2.594
		c-4.041,0.199-8.281,0.448-11.773,2.494c-4.191,2.495-35.671,47.843-16.812,46.746c-91.298,5.388-182.993,10.875-272.446,29.983
		c-13.291,2.819-28.735,9.429-37.088,19.076c-5.098,5.887-7.554,12.906-5.267,20.885c2.994,10.228,13.122,16.464,22.749,21.053
		c64.409,30.927,138.329,33.734,208.974,46.123c35.568,6.236,70.307,14.901,102.584,30.806c10.877,5.388,22.8,18.958,14.219,27.589
		c-2.245,2.295-5.439,3.343-8.083,5.188c-4.363,3.099-6.334,7.965-6.414,13.163c-0.117,7.522,3.724,15.741,10.007,20.313
		c5.43,3.971,11.795,5.967,18.472,6.958c6.327,0.938,12.934,0.973,19.293,0.924c23.747-0.1,48.242-0.199,70.045,9.13
		c21.801,9.279,40.36,30.582,38.663,54.278c-0.848,11.525-6.336,22.8-4.639,34.274c3.942,26.591,41.01,34.324,53.182,58.321
		c12.888,25.408-6.482,50.188-23.768,75.593c-6.066,8.915-11.876,17.906-15.944,27.029c-19.407,43.603,3.592,95.189,36.17,130.011
		c10.511,11.239,22.523,22.368,28.136,36.365c0.941,2.344,1.703,4.768,2.246,7.287c1.796,8.232,1.098,17.013,4.24,24.845
		c5.089,12.522,18.459,19.157,30.384,25.593c17.576,9.442,34.151,20.713,49.425,33.534c10.956,9.196,21.244,19.186,30.745,29.875
		c11.524,12.972,22.949,27.689,39.563,32.578c29.234,8.681,58.32-18.559,66.9-47.793c8.581-29.235,4.091-60.616,7.484-90.949
		c0.747-6.717,1.877-13.452,3.262-20.198c11.201-54.531,39.12-109.643,16.744-159.502c26.41,21.416,44.254,52.59,50.817,85.888
		c3.667,18.595,3.815,37.853-0.029,56.445c-5.588,27.09-18.959,53.532-15.516,80.971c1.397,11.225,5.637,22.2,4.739,33.475
		c-2.495,30.033-40.111,52.235-33.425,81.619c2.544,11.175,11.325,20.205,13.818,31.38c3.592,16.314-6.884,32.028-11.524,48.093
		c-4.59,16.064,2.744,39.313,19.407,37.865c24.895-2.245,26.192-54.678,50.288-47.844c8.033,8.381,2.145,22.051-3.692,32.128
		c-36.27,63.01-57.372,134.701-61.014,207.29c-27.539,21.951-25.843,64.058-17.661,98.281c1.848,7.649,3.869,15.44,5.731,23.286
		c2.814,11.856,5.262,23.835,6.192,35.633c95.837-145.127,151.664-318.991,151.664-505.925
		C1979.893,674.518,1741.772,343.953,1404.322,207.906z"/>
	<path style="fill:#E2CFC3;" d="M1694.027,1689.463c-35.221-11.325-70.443-22.699-105.615-34.075
		c-8.71-2.807-17.522-5.624-26.42-7.884c-12.762-3.243-25.704-5.343-38.785-4.638c-22.251,1.247-45.349,12.472-54.328,32.828
		c-11.725,26.791,4.09,57.373,3.341,86.607c-1.447,54.679-40.21,55.477-71.441,81.17c-2.195,1.796-4.289,3.692-6.385,5.737
		c-16.612,16.363-9.728,45.299-5.737,70.393c126.868-48.442,240.316-124.273,333.009-220.16c-8.165-3.493-16.699-6.448-25.118-9.169
		C1695.706,1690.001,1694.865,1689.73,1694.027,1689.463z"/>
	<path style="fill:#E2CFC3;" d="M1553.077,1519.645c21.197,13.372,52.627,11.855,68.196-7.785
		c14.81-18.683,15.324-50.667,37.906-58.31c6.621-2.241,13.852-1.638,20.716-2.968c15.955-3.091,28.367-16.558,34.386-31.656
		c6.018-15.097,6.66-31.739,6.674-47.992c0.033-37.605-3.056-75.966-17.474-110.698c-14.416-34.727-41.646-65.659-77.483-77.038
		c-17.943-5.697-30.736-7.057-39.771-5.195c-24.603,5.069-21.339,34.025-18.272,64.324c1.796,17.751,3.525,35.964-0.459,50.105
		c-5.034,17.866-15.76,33.235-25.899,48.935c-4.106,6.358-8.116,12.768-11.611,19.421c-15.38,29.268-20.603,63.754-14.58,96.265
		c0.988,5.332,2.32,10.661,4.015,15.874C1525.559,1491.807,1536.467,1509.167,1553.077,1519.645z"/>
</g>
</g>
</svg>