<svg viewBox="0 0 141 140" xmlns="http://www.w3.org/2000/svg" fill-rule="evenodd" clip-rule="evenodd" stroke-linejoin="round" stroke-miterlimit="2"><path fill="none" d="M.886 0h140v140h-140z"/><path d="M72.036 120c-28.214 0-51.15-22.853-51.15-50.965 0-22.49 15.29-42.622 36.952-48.97.91-.181 2.002 0 2.548.726.729.725.91 1.632.729 2.539-1.275 4.172-1.82 8.343-1.82 12.514 0 25.21 20.569 45.524 45.689 45.524 4.187 0 8.373-.544 12.56-1.814.91-.181 2.002 0 2.548.726.728.725.91 1.632.728 2.54C114.813 104.764 94.608 120 72.036 120z" fill="#00b7f0" fill-rule="nonzero"/></svg>