<svg viewBox="0 0 141 140" xmlns="http://www.w3.org/2000/svg" fill-rule="evenodd" clip-rule="evenodd" stroke-miterlimit="10"><g transform="matrix(.42424 0 0 1 -160.441 0)"><path fill="none" d="M380 0h330v140H380z"/><clipPath id="a"><path d="M380 0h330v140H380z"/></clipPath><g clip-path="url(#a)"><path d="M94.1 93.6c11.3 0 20.5-9.2 20.5-20.5s-8.201-19.499-19.501-19.499h-.2C93.099 37.301 78.2 23.5 61.4 23.5c-13.3 0-24.7 7.9-29.8 19.3h-.5c-14 0-25.4 11.4-25.4 25.4 0 14 11.4 25.4 25.4 25.4h63z" fill="#fff" fill-rule="nonzero" stroke="#cfe7f7" stroke-width="6" transform="matrix(2.3593 0 0 .99857 380.695 9.534)"/><path d="M122.404 94.6c7.1 0 11.896-5.8 11.896-12.9 0-7.1-5.8-12.9-12.9-12.9h-.1c-1.1-10.3-9.8-18.2-20.4-18.2-8.3 0-15.5 5-18.7 12.1h-.3c-8.8 0-15.9 7.1-15.9 15.9s7.1 16 15.9 16h40.504z" fill="#fff" fill-rule="nonzero" stroke="#cfe7f7" stroke-width="6" transform="matrix(2.34679 0 0 1 380.683 12.4)"/></g></g></svg>