<svg viewBox="0 0 141 140" xmlns="http://www.w3.org/2000/svg" fill-rule="evenodd" clip-rule="evenodd" stroke-miterlimit="10"><g transform="translate(-569.343)"><path fill="none" d="M570 0h140v140H570z"/><clipPath id="a"><path d="M570 0h140v140H570z"/></clipPath><g clip-path="url(#a)"><path d="M94.1 93.6c11.3 0 20.5-9.2 20.5-20.5s-8.201-19.499-19.501-19.499h-.2C93.099 37.301 78.2 23.5 61.4 23.5c-13.3 0-24.7 7.9-29.8 19.3h-.5c-14 0-25.4 11.4-25.4 25.4 0 14 11.4 25.4 25.4 25.4h63z" fill="#fff" fill-rule="nonzero" stroke="#cfe7f7" stroke-width="6" transform="matrix(1.00092 0 0 .99857 570.295 -.966)"/><path d="M122.404 94.6c7.1 0 11.896-5.8 11.896-12.9 0-7.1-5.8-12.9-12.9-12.9h-.1c-1.1-10.3-9.8-18.2-20.4-18.2-8.3 0-15.5 5-18.7 12.1h-.3c-8.8 0-15.9 7.1-15.9 15.9s7.1 16 15.9 16h40.504z" fill="#fff" fill-rule="nonzero" stroke="#cfe7f7" stroke-width="6" transform="matrix(.9956 0 0 1 570.29 1.9)"/><g fill="#aaaaa9" fill-rule="nonzero"><path d="M683.5 97c.8 1.8 0 3.8-1.8 4.6-.5.3-1 .4-1.4.7-3.4 1.5-7.3 3.3-11.5 3.4h-.5c-4.9 0-10.1-1.2-14.9-3.5-3.7-1.8-7-1.8-12.1-.1-.4.1-.8.3-1.2.3-5.3 1.7-10.6 3.5-16.6 2.8-3.1-.3-5.6-1.3-8.2-2.3-2.4-.9-4.7-1.9-7-2-4.2-.2-7 .3-9.8 3.1-1.4 1.4-3.6 1.4-4.9 0-1.4-1.4-1.4-3.6 0-4.9 5-5.1 10.4-5.2 15-5.1 3.5.2 6.5 1.4 9.3 2.5 2.1.8 4.2 1.7 6.3 2 4.4.5 8.9-.9 13.6-2.5.4-.2.8-.3 1.2-.4 5.1-1.6 10.7-2.7 17.3.4 3.9 1.9 8.4 2.8 12.3 2.8 2.9-.1 5.8-1.4 8.8-2.7.5-.3 1-.5 1.5-.7 1.8-1 3.9-.1 4.6 1.6z"/><path d="M678.9 83.4c1.8-.8 3.8 0 4.6 1.8.8 1.8 0 3.8-1.8 4.6-.5.3-1 .4-1.4.7-3.4 1.5-7.3 3.3-11.5 3.4h-.5c-4.9 0-10.1-1.2-14.9-3.5-3.7-1.8-7-1.8-12.1-.1-.4.1-.8.3-1.2.3-5.3 1.7-10.6 3.5-16.6 2.8-3.1-.3-5.6-1.3-8.2-2.3-2.4-.9-4.7-1.9-7-2-4.2-.2-7 .3-9.8 3.1-1.4 1.4-3.6 1.4-4.9 0-1.4-1.4-1.4-3.6 0-4.9 5.1-5.1 10.4-5.3 15.1-5.1 3.5.2 6.5 1.4 9.3 2.5 2.1.8 4.2 1.7 6.3 2 4.4.5 8.9-.9 13.6-2.5.4-.2.8-.3 1.2-.4 5.1-1.6 10.7-2.7 17.3.4 3.9 1.9 8.4 2.9 12.3 2.8 2.9-.1 5.8-1.4 8.8-2.7.4-.5.9-.6 1.4-.9zM683.5 108.8c.8 1.8 0 3.8-1.8 4.6-.5.3-1 .4-1.4.7-3.4 1.5-7.3 3.3-11.5 3.4h-.5c-4.9 0-10.1-1.2-14.9-3.5-3.7-1.8-7-1.8-12.1-.1-.4.1-.8.3-1.2.3-5.3 1.7-10.6 3.5-16.6 2.8-3.1-.3-5.6-1.3-8.2-2.3-2.4-.9-4.7-1.9-7-2-4.2-.2-7 .3-9.8 3.1-1.4 1.4-3.6 1.4-4.9 0-1.4-1.4-1.4-3.6 0-4.9 5.1-5.1 10.4-5.3 15.1-5.1 3.5.2 6.5 1.4 9.3 2.5 2.1.8 4.2 1.7 6.3 2 4.4.5 8.9-.9 13.6-2.5.4-.2.8-.3 1.2-.4 5.1-1.6 10.7-2.7 17.3.4 3.9 1.9 8.4 2.8 12.3 2.8 2.9-.1 5.8-1.4 8.8-2.7.5-.3 1-.5 1.5-.7 1.7-.9 3.8-.1 4.5 1.6z"/></g></g></g></svg>