<svg viewBox="0 0 141 141" xmlns="http://www.w3.org/2000/svg" fill-rule="evenodd" clip-rule="evenodd" stroke-miterlimit="10"><g transform="translate(-759.752 .709)"><path fill="none" d="M760 0h140v140H760z"/><clipPath id="a"><path d="M760 0h140v140H760z"/></clipPath><g clip-path="url(#a)"><path d="M866.656 82C850.574 82 837.5 68.974 837.5 52.95c0-12.82 8.716-24.294 21.063-27.913.519-.103 1.141 0 1.453.414.415.413.518.93.415 1.447-.727 2.378-1.038 4.756-1.038 7.133 0 14.37 11.725 25.95 26.043 25.95 2.386 0 4.773-.311 7.16-1.035.518-.103 1.14 0 1.452.414.415.413.519.93.415 1.447C891.039 73.317 879.522 82 866.656 82z" fill="#00b7f0" fill-rule="nonzero"/><path d="M94.1 93.6c11.3 0 20.5-9.2 20.5-20.5s-8.201-19.499-19.501-19.499h-.2C93.099 37.301 78.2 23.5 61.4 23.5c-13.3 0-24.7 7.9-29.8 19.3h-.5c-14 0-25.4 11.4-25.4 25.4 0 14 11.4 25.4 25.4 25.4h63z" fill="#fff" fill-rule="nonzero" stroke="#cfe7f7" stroke-width="6" transform="matrix(1.00092 0 0 .99857 759.795 17.534)"/><path d="M122.404 94.6c7.1 0 11.896-5.8 11.896-12.9 0-7.1-5.8-12.9-12.9-12.9h-.1c-1.1-10.3-9.8-18.2-20.4-18.2-8.3 0-15.5 5-18.7 12.1h-.3c-8.8 0-15.9 7.1-15.9 15.9s7.1 16 15.9 16h40.504z" fill="#fff" fill-rule="nonzero" stroke="#cfe7f7" stroke-width="6" transform="matrix(.9956 0 0 1 759.79 20.4)"/></g></g></svg>