<svg viewBox="0 0 141 141" xmlns="http://www.w3.org/2000/svg" fill-rule="evenodd" clip-rule="evenodd" stroke-miterlimit="10"><g transform="translate(-949.744 .709)"><path fill="none" d="M950 0h140v140H950z"/><clipPath id="a"><path d="M950 0h140v140H950z"/></clipPath><g clip-path="url(#a)"><path d="M1056.656 69.725c-16.082 0-29.156-13.026-29.156-29.05 0-12.82 8.716-24.295 21.063-27.913.519-.104 1.141 0 1.453.413.415.414.518.93.415 1.448-.727 2.377-1.038 4.755-1.038 7.133 0 14.37 11.725 25.949 26.043 25.949 2.386 0 4.773-.31 7.16-1.034.518-.104 1.14 0 1.452.413.415.414.519.93.415 1.448-3.424 12.509-14.941 21.193-27.807 21.193z" fill="#00b7f0" fill-rule="nonzero"/><path d="M94.1 93.6c11.3 0 20.5-9.2 20.5-20.5s-8.201-19.499-19.501-19.499h-.2C93.099 37.301 78.2 23.5 61.4 23.5c-13.3 0-24.7 7.9-29.8 19.3h-.5c-14 0-25.4 11.4-25.4 25.4 0 14 11.4 25.4 25.4 25.4h63z" fill="#fff" fill-rule="nonzero" stroke="#cfe7f7" stroke-width="6" transform="matrix(1.00092 0 0 .99857 949.795 -.235)"/><path d="M122.404 94.6c7.1 0 11.896-5.8 11.896-12.9 0-7.1-5.8-12.9-12.9-12.9h-.1c-1.1-10.3-9.8-18.2-20.4-18.2-8.3 0-15.5 5-18.7 12.1h-.3c-8.8 0-15.9 7.1-15.9 15.9s7.1 16 15.9 16h40.504z" fill="#cfe7f7" fill-rule="nonzero" stroke="#cfe7f7" stroke-width="6" transform="matrix(.9956 0 0 1 949.79 2.632)"/><g><path d="M91.9 36.2l-8.3 2.2 2.2-8.3c.4-1.3-.4-2.7-1.8-3.1-1.3-.4-2.7.4-3.1 1.8l-3 11.1-24.4 6.5L60.1 22l11.1-3c1.3-.4 2.1-1.7 1.8-3.1-.4-1.3-1.7-2.1-3.1-1.8l-8.3 2.2L63.8 8c.4-1.3-.4-2.7-1.8-3.1-1.3-.4-2.7.4-3.1 1.8L56.7 15l-6.1-6.1c-1-1-2.6-1-3.5 0-1 1-1 2.6 0 3.5l8.1 8.1-6.5 24.4-17.9-17.6 3-11.1c.4-1.3-.4-2.7-1.8-3.1-1.3-.4-2.7.4-3.1 1.8l-2.2 8.3-6.1-6.1c-1-1-2.6-1-3.5 0-1 1-1 2.6 0 3.5l6.1 6.1-8.3 2.3c-1.3.4-2.1 1.7-1.8 3.1.3 1.1 1.3 1.9 2.4 1.9.2 0 .4 0 .6-.1l11.1-3 17.9 17.9-24.4 6.5-8.1-8.1c-1-1-2.6-1-3.5 0-1 1-1 2.6 0 3.5l6.1 6.1L6.9 59c-1.3.4-2.1 1.7-1.8 3.1.3 1.1 1.3 1.9 2.4 1.9.2 0 .4 0 .6-.1l8.3-2.2-2.2 8.3c-.4 1.3.4 2.7 1.8 3.1.2.1.4.1.6.1 1.1 0 2.1-.7 2.4-1.9l3-11.1 24.4-6.5L39.9 78l-11.1 3c-1.3.4-2.1 1.7-1.8 3.1.4 1.3 1.7 2.1 3.1 1.8l8.3-2.2-2.2 8.3c-.4 1.3.4 2.7 1.8 3.1.2.1.4.1.6.1 1.1 0 2.1-.7 2.4-1.9l2.2-8.3 6.1 6.1c.5.5 1.1.7 1.8.7s1.3-.2 1.8-.7c1-1 1-2.6 0-3.5l-8.1-8.1 6.5-24.4L69.2 73l-3 11.1c-.4 1.3.4 2.7 1.8 3.1.2.1.4.1.6.1 1.1 0 2.1-.7 2.4-1.9l2.2-8.3 6.1 6.1c.5.5 1.1.7 1.8.7s1.3-.2 1.8-.7c1-1 1-2.6 0-3.5l-6.1-6.1 8.3-2.2c1.3-.4 2.1-1.7 1.8-3.1-.4-1.3-1.7-2.1-3.1-1.8l-11.1 3-17.9-18.2 24.4-6.5 8.1 8.1c.5.5 1.1.7 1.8.7s1.3-.2 1.8-.7c1-1 1-2.6 0-3.5l-6.1-6.1 8.3-2.2c1.3-.4 2.1-1.7 1.8-3.1-.3-1.4-1.7-2.2-3-1.8z" fill="#88acd2" fill-rule="nonzero" stroke="#88acd2" stroke-width="5.12" stroke-linejoin="round" stroke-miterlimit="2" transform="matrix(.08296 .3096 -.31152 .08347 989.43 97.14)"/><path d="M91.9 36.2l-8.3 2.2 2.2-8.3c.4-1.3-.4-2.7-1.8-3.1-1.3-.4-2.7.4-3.1 1.8l-3 11.1-24.4 6.5L60.1 22l11.1-3c1.3-.4 2.1-1.7 1.8-3.1-.4-1.3-1.7-2.1-3.1-1.8l-8.3 2.2L63.8 8c.4-1.3-.4-2.7-1.8-3.1-1.3-.4-2.7.4-3.1 1.8L56.7 15l-6.1-6.1c-1-1-2.6-1-3.5 0-1 1-1 2.6 0 3.5l8.1 8.1-6.5 24.4-17.9-17.6 3-11.1c.4-1.3-.4-2.7-1.8-3.1-1.3-.4-2.7.4-3.1 1.8l-2.2 8.3-6.1-6.1c-1-1-2.6-1-3.5 0-1 1-1 2.6 0 3.5l6.1 6.1-8.3 2.3c-1.3.4-2.1 1.7-1.8 3.1.3 1.1 1.3 1.9 2.4 1.9.2 0 .4 0 .6-.1l11.1-3 17.9 17.9-24.4 6.5-8.1-8.1c-1-1-2.6-1-3.5 0-1 1-1 2.6 0 3.5l6.1 6.1L6.9 59c-1.3.4-2.1 1.7-1.8 3.1.3 1.1 1.3 1.9 2.4 1.9.2 0 .4 0 .6-.1l8.3-2.2-2.2 8.3c-.4 1.3.4 2.7 1.8 3.1.2.1.4.1.6.1 1.1 0 2.1-.7 2.4-1.9l3-11.1 24.4-6.5L39.9 78l-11.1 3c-1.3.4-2.1 1.7-1.8 3.1.4 1.3 1.7 2.1 3.1 1.8l8.3-2.2-2.2 8.3c-.4 1.3.4 2.7 1.8 3.1.2.1.4.1.6.1 1.1 0 2.1-.7 2.4-1.9l2.2-8.3 6.1 6.1c.5.5 1.1.7 1.8.7s1.3-.2 1.8-.7c1-1 1-2.6 0-3.5l-8.1-8.1 6.5-24.4L69.2 73l-3 11.1c-.4 1.3.4 2.7 1.8 3.1.2.1.4.1.6.1 1.1 0 2.1-.7 2.4-1.9l2.2-8.3 6.1 6.1c.5.5 1.1.7 1.8.7s1.3-.2 1.8-.7c1-1 1-2.6 0-3.5l-6.1-6.1 8.3-2.2c1.3-.4 2.1-1.7 1.8-3.1-.4-1.3-1.7-2.1-3.1-1.8l-11.1 3-17.9-18.2 24.4-6.5 8.1 8.1c.5.5 1.1.7 1.8.7s1.3-.2 1.8-.7c1-1 1-2.6 0-3.5l-6.1-6.1 8.3-2.2c1.3-.4 2.1-1.7 1.8-3.1-.3-1.4-1.7-2.2-3-1.8z" fill="#88acd2" fill-rule="nonzero" stroke="#88acd2" stroke-width="5.12" stroke-linejoin="round" stroke-miterlimit="2" transform="matrix(.08296 .3096 -.31152 .08347 1070.807 101.14)"/><path d="M91.9 36.2l-8.3 2.2 2.2-8.3c.4-1.3-.4-2.7-1.8-3.1-1.3-.4-2.7.4-3.1 1.8l-3 11.1-24.4 6.5L60.1 22l11.1-3c1.3-.4 2.1-1.7 1.8-3.1-.4-1.3-1.7-2.1-3.1-1.8l-8.3 2.2L63.8 8c.4-1.3-.4-2.7-1.8-3.1-1.3-.4-2.7.4-3.1 1.8L56.7 15l-6.1-6.1c-1-1-2.6-1-3.5 0-1 1-1 2.6 0 3.5l8.1 8.1-6.5 24.4-17.9-17.6 3-11.1c.4-1.3-.4-2.7-1.8-3.1-1.3-.4-2.7.4-3.1 1.8l-2.2 8.3-6.1-6.1c-1-1-2.6-1-3.5 0-1 1-1 2.6 0 3.5l6.1 6.1-8.3 2.3c-1.3.4-2.1 1.7-1.8 3.1.3 1.1 1.3 1.9 2.4 1.9.2 0 .4 0 .6-.1l11.1-3 17.9 17.9-24.4 6.5-8.1-8.1c-1-1-2.6-1-3.5 0-1 1-1 2.6 0 3.5l6.1 6.1L6.9 59c-1.3.4-2.1 1.7-1.8 3.1.3 1.1 1.3 1.9 2.4 1.9.2 0 .4 0 .6-.1l8.3-2.2-2.2 8.3c-.4 1.3.4 2.7 1.8 3.1.2.1.4.1.6.1 1.1 0 2.1-.7 2.4-1.9l3-11.1 24.4-6.5L39.9 78l-11.1 3c-1.3.4-2.1 1.7-1.8 3.1.4 1.3 1.7 2.1 3.1 1.8l8.3-2.2-2.2 8.3c-.4 1.3.4 2.7 1.8 3.1.2.1.4.1.6.1 1.1 0 2.1-.7 2.4-1.9l2.2-8.3 6.1 6.1c.5.5 1.1.7 1.8.7s1.3-.2 1.8-.7c1-1 1-2.6 0-3.5l-8.1-8.1 6.5-24.4L69.2 73l-3 11.1c-.4 1.3.4 2.7 1.8 3.1.2.1.4.1.6.1 1.1 0 2.1-.7 2.4-1.9l2.2-8.3 6.1 6.1c.5.5 1.1.7 1.8.7s1.3-.2 1.8-.7c1-1 1-2.6 0-3.5l-6.1-6.1 8.3-2.2c1.3-.4 2.1-1.7 1.8-3.1-.4-1.3-1.7-2.1-3.1-1.8l-11.1 3-17.9-18.2 24.4-6.5 8.1 8.1c.5.5 1.1.7 1.8.7s1.3-.2 1.8-.7c1-1 1-2.6 0-3.5l-6.1-6.1 8.3-2.2c1.3-.4 2.1-1.7 1.8-3.1-.3-1.4-1.7-2.2-3-1.8z" fill="#88acd2" fill-rule="nonzero" stroke="#88acd2" stroke-width="5.12" stroke-linejoin="round" stroke-miterlimit="2" transform="matrix(.08296 .3096 -.31152 .08347 1030.118 106.141)"/></g></g></g></svg>