<svg viewBox="0 0 141 140" xmlns="http://www.w3.org/2000/svg" fill-rule="evenodd" clip-rule="evenodd" stroke-miterlimit="10"><g transform="translate(-949.685)"><path fill="none" d="M950 0h140v140H950z"/><clipPath id="a"><path d="M950 0h140v140H950z"/></clipPath><g clip-path="url(#a)"><circle cx="106.5" cy="35.5" r="28.5" fill="#f7b91e" transform="translate(949.5 5.725)"/><path d="M94.1 93.6c11.3 0 20.5-9.2 20.5-20.5s-8.201-19.499-19.501-19.499h-.2C93.099 37.301 78.2 23.5 61.4 23.5c-13.3 0-24.7 7.9-29.8 19.3h-.5c-14 0-25.4 11.4-25.4 25.4 0 14 11.4 25.4 25.4 25.4h63z" fill="#fff" fill-rule="nonzero" stroke="#cfe7f7" stroke-width="6" transform="matrix(1.00092 0 0 .99857 949.795 -.235)"/><path d="M122.404 94.6c7.1 0 11.896-5.8 11.896-12.9 0-7.1-5.8-12.9-12.9-12.9h-.1c-1.1-10.3-9.8-18.2-20.4-18.2-8.3 0-15.5 5-18.7 12.1h-.3c-8.8 0-15.9 7.1-15.9 15.9s7.1 16 15.9 16h40.504z" fill="#cfe7f7" fill-rule="nonzero" stroke="#cfe7f7" stroke-width="6" transform="matrix(.9956 0 0 1 949.79 2.632)"/><g><path d="M28.2 119.4c-.7 0-1.3-.2-1.9-.5-1.8-1.1-2.5-3.4-1.4-5.3L37.4 92c1.1-1.8 3.4-2.5 5.3-1.4 1.8 1.1 2.5 3.4 1.4 5.3l-12.5 21.6c-.7 1.2-2 1.9-3.4 1.9z" fill="url(#_Linear2)" fill-rule="nonzero" transform="translate(949.5 1.768)"/><path d="M42 131c-.7 0-1.3-.2-1.9-.5-1.8-1.1-2.5-3.4-1.4-5.3L57.8 92c1.1-1.8 3.4-2.5 5.3-1.4 1.8 1.1 2.5 3.4 1.4 5.3l-19.2 33.3c-.7 1.1-2 1.8-3.3 1.8z" fill="url(#_Linear3)" fill-rule="nonzero" transform="translate(949.5 1.768)"/><path d="M91.9 36.2l-8.3 2.2 2.2-8.3c.4-1.3-.4-2.7-1.8-3.1-1.3-.4-2.7.4-3.1 1.8l-3 11.1-24.4 6.5L60.1 22l11.1-3c1.3-.4 2.1-1.7 1.8-3.1-.4-1.3-1.7-2.1-3.1-1.8l-8.3 2.2L63.8 8c.4-1.3-.4-2.7-1.8-3.1-1.3-.4-2.7.4-3.1 1.8L56.7 15l-6.1-6.1c-1-1-2.6-1-3.5 0-1 1-1 2.6 0 3.5l8.1 8.1-6.5 24.4-17.9-17.6 3-11.1c.4-1.3-.4-2.7-1.8-3.1-1.3-.4-2.7.4-3.1 1.8l-2.2 8.3-6.1-6.1c-1-1-2.6-1-3.5 0-1 1-1 2.6 0 3.5l6.1 6.1-8.3 2.3c-1.3.4-2.1 1.7-1.8 3.1.3 1.1 1.3 1.9 2.4 1.9.2 0 .4 0 .6-.1l11.1-3 17.9 17.9-24.4 6.5-8.1-8.1c-1-1-2.6-1-3.5 0-1 1-1 2.6 0 3.5l6.1 6.1L6.9 59c-1.3.4-2.1 1.7-1.8 3.1.3 1.1 1.3 1.9 2.4 1.9.2 0 .4 0 .6-.1l8.3-2.2-2.2 8.3c-.4 1.3.4 2.7 1.8 3.1.2.1.4.1.6.1 1.1 0 2.1-.7 2.4-1.9l3-11.1 24.4-6.5L39.9 78l-11.1 3c-1.3.4-2.1 1.7-1.8 3.1.4 1.3 1.7 2.1 3.1 1.8l8.3-2.2-2.2 8.3c-.4 1.3.4 2.7 1.8 3.1.2.1.4.1.6.1 1.1 0 2.1-.7 2.4-1.9l2.2-8.3 6.1 6.1c.5.5 1.1.7 1.8.7s1.3-.2 1.8-.7c1-1 1-2.6 0-3.5l-8.1-8.1 6.5-24.4L69.2 73l-3 11.1c-.4 1.3.4 2.7 1.8 3.1.2.1.4.1.6.1 1.1 0 2.1-.7 2.4-1.9l2.2-8.3 6.1 6.1c.5.5 1.1.7 1.8.7s1.3-.2 1.8-.7c1-1 1-2.6 0-3.5l-6.1-6.1 8.3-2.2c1.3-.4 2.1-1.7 1.8-3.1-.4-1.3-1.7-2.1-3.1-1.8l-11.1 3-17.9-18.2 24.4-6.5 8.1 8.1c.5.5 1.1.7 1.8.7s1.3-.2 1.8-.7c1-1 1-2.6 0-3.5l-6.1-6.1 8.3-2.2c1.3-.4 2.1-1.7 1.8-3.1-.3-1.4-1.7-2.2-3-1.8z" fill="#88acd2" fill-rule="nonzero" stroke="#88acd2" stroke-width="5.12" stroke-linejoin="round" stroke-miterlimit="2" transform="matrix(.09872 .36856 -.37088 .09941 1057.209 96.38)"/></g></g></g><defs><linearGradient id="_Linear2" x1="0" y1="0" x2="1" y2="0" gradientUnits="userSpaceOnUse" gradientTransform="translate(24.402 104.705) scale(20.179)"><stop offset="0" stop-color="#00adee"/><stop offset="1" stop-color="#00bcf1"/></linearGradient><linearGradient id="_Linear3" x1="0" y1="0" x2="1" y2="0" gradientUnits="userSpaceOnUse" gradientTransform="translate(38.11 110.532) scale(26.9073)"><stop offset="0" stop-color="#00adee"/><stop offset="1" stop-color="#00bcf1"/></linearGradient></defs></svg>