<svg viewBox="0 0 141 140" xmlns="http://www.w3.org/2000/svg" fill-rule="evenodd" clip-rule="evenodd" stroke-miterlimit="10"><g transform="translate(-949.571)"><path fill="none" d="M950 0h140v140H950z"/><clipPath id="a"><path d="M950 0h140v140H950z"/></clipPath><g clip-path="url(#a)"><path d="M31.2 120c-2 0-3.7-1.7-3.7-3.7 0-.6.2-1.3.5-1.8l5.3-9.2c1-1.8 3.3-2.4 5-1.3 1.8 1 2.4 3.3 1.3 5l-5.3 9.2c-.6 1.1-1.8 1.8-3.1 1.8z" fill="url(#_Linear2)" fill-rule="nonzero" transform="translate(949.6 7.275)"/><path d="M56.2 120c-2 0-3.7-1.7-3.7-3.7 0-.6.2-1.3.5-1.8l5.3-9.2c1-1.8 3.3-2.4 5-1.3 1.8 1 2.4 3.3 1.3 5l-5.3 9.2c-.5 1.1-1.7 1.8-3.1 1.8z" fill="url(#_Linear3)" fill-rule="nonzero" transform="translate(949.6 7.275)"/><path d="M83.1 120c-2 0-3.7-1.7-3.7-3.7 0-.6.2-1.3.5-1.8l5.3-9.2c1-1.8 3.3-2.4 5-1.3 1.8 1 2.4 3.3 1.3 5l-5.3 9.2c-.6 1.1-1.8 1.8-3.1 1.8z" fill="url(#_Linear4)" fill-rule="nonzero" transform="translate(949.6 7.275)"/><g><circle cx="106.5" cy="35.5" r="28.5" fill="#f7b91e" transform="translate(949.5 5.725)"/></g><g><path d="M94.1 93.6c11.3 0 20.5-9.2 20.5-20.5s-8.201-19.499-19.501-19.499h-.2C93.099 37.301 78.2 23.5 61.4 23.5c-13.3 0-24.7 7.9-29.8 19.3h-.5c-14 0-25.4 11.4-25.4 25.4 0 14 11.4 25.4 25.4 25.4h63z" fill="#fff" fill-rule="nonzero" stroke="#cfe7f7" stroke-width="6" transform="matrix(1.00092 0 0 .99857 950.795 5.258)"/><path d="M122.404 94.6c7.1 0 11.896-5.8 11.896-12.9 0-7.1-5.8-12.9-12.9-12.9h-.1c-1.1-10.3-9.8-18.2-20.4-18.2-8.3 0-15.5 5-18.7 12.1h-.3c-8.8 0-15.9 7.1-15.9 15.9s7.1 16 15.9 16h40.504z" fill="#cfe7f7" fill-rule="nonzero" stroke="#cfe7f7" stroke-width="6" transform="matrix(.9956 0 0 1 950.79 8.125)"/></g></g></g><defs><linearGradient id="_Linear2" x1="0" y1="0" x2="1" y2="0" gradientUnits="userSpaceOnUse" gradientTransform="translate(27.535 111.689) scale(12.6631)"><stop offset="0" stop-color="#00adee"/><stop offset="1" stop-color="#00bcf1"/></linearGradient><linearGradient id="_Linear3" x1="0" y1="0" x2="1" y2="0" gradientUnits="userSpaceOnUse" gradientTransform="translate(52.569 111.69) scale(12.6626)"><stop offset="0" stop-color="#00adee"/><stop offset="1" stop-color="#00bcf1"/></linearGradient><linearGradient id="_Linear4" x1="0" y1="0" x2="1" y2="0" gradientUnits="userSpaceOnUse" gradientTransform="translate(79.44 111.689) scale(12.6631)"><stop offset="0" stop-color="#00adee"/><stop offset="1" stop-color="#00bcf1"/></linearGradient></defs></svg>