<svg viewBox="0 0 141 140" xmlns="http://www.w3.org/2000/svg" fill-rule="evenodd" clip-rule="evenodd" stroke-miterlimit="10"><g transform="translate(-949.028)"><path fill="none" d="M950 0h140v140H950z"/><clipPath id="a"><path d="M950 0h140v140H950z"/></clipPath><g clip-path="url(#a)"><path d="M94.1 93.6c11.3 0 20.5-9.2 20.5-20.5s-8.201-19.499-19.501-19.499h-.2C93.099 37.301 78.2 23.5 61.4 23.5c-13.3 0-24.7 7.9-29.8 19.3h-.5c-14 0-25.4 11.4-25.4 25.4 0 14 11.4 25.4 25.4 25.4h63z" fill="#fff" fill-rule="nonzero" stroke="#cfe7f7" stroke-width="6" transform="matrix(1.00092 0 0 .99857 950.295 -3.591)"/><path d="M122.404 94.6c7.1 0 11.896-5.8 11.896-12.9 0-7.1-5.8-12.9-12.9-12.9h-.1c-1.1-10.3-9.8-18.2-20.4-18.2-8.3 0-15.5 5-18.7 12.1h-.3c-8.8 0-15.9 7.1-15.9 15.9s7.1 16 15.9 16h40.504z" fill="#cfe7f7" fill-rule="nonzero" stroke="#cfe7f7" stroke-width="6" transform="matrix(.9956 0 0 1 950.29 -.725)"/><g fill-rule="nonzero"><path d="M28.8 106.2c-.7 0-1.3-.2-1.9-.5-1.8-1.1-2.5-3.4-1.4-5.3l5.5-9.6c1.1-1.8 3.4-2.5 5.3-1.4 1.8 1.1 2.5 3.4 1.4 5.3l-5.5 9.6c-.7 1.2-2 1.9-3.4 1.9z" fill="url(#_Linear2)" transform="translate(950 .125)"/><path d="M59.8 106.2c-.7 0-1.3-.2-1.9-.5-1.8-1.1-2.5-3.4-1.4-5.3l5.5-9.6c1.1-1.8 3.4-2.5 5.3-1.4 1.8 1.1 2.5 3.4 1.4 5.3l-5.5 9.6c-.8 1.2-2.1 1.9-3.4 1.9z" fill="url(#_Linear3)" transform="translate(950 .125)"/><path d="M90.8 106.2c-.7 0-1.3-.2-1.9-.5-1.8-1.1-2.5-3.4-1.4-5.3l5.5-9.6c1.1-1.8 3.4-2.5 5.3-1.4 1.8 1.1 2.5 3.4 1.4 5.3l-5.5 9.6c-.8 1.2-2.1 1.9-3.4 1.9z" fill="url(#_Linear4)" transform="translate(950 .125)"/><path d="M38.5 120c-.7 0-1.3-.2-1.9-.5-1.8-1.1-2.5-3.4-1.4-5.3l5.5-9.6c1.1-1.8 3.4-2.5 5.3-1.4 1.8 1.1 2.5 3.4 1.4 5.3l-5.5 9.6c-.8 1.2-2.1 1.9-3.4 1.9z" fill="url(#_Linear5)" transform="translate(950 .125)"/><path d="M70.4 120c-.7 0-1.3-.2-1.9-.5-1.8-1.1-2.5-3.4-1.4-5.3l5.5-9.6c1.1-1.8 3.4-2.5 5.3-1.4 1.8 1.1 2.5 3.4 1.4 5.3l-5.5 9.6c-.8 1.2-2.1 1.9-3.4 1.9z" fill="url(#_Linear6)" transform="translate(950 .125)"/><path d="M102.3 120c-.7 0-1.3-.2-1.9-.5-1.8-1.1-2.5-3.4-1.4-5.3l5.5-9.6c1.1-1.8 3.4-2.5 5.3-1.4 1.8 1.1 2.5 3.4 1.4 5.3l-5.5 9.6c-.8 1.2-2.1 1.9-3.4 1.9z" fill="url(#_Linear7)" transform="translate(950 .125)"/></g></g></g><defs><linearGradient id="_Linear2" x1="0" y1="0" x2="1" y2="0" gradientUnits="userSpaceOnUse" gradientTransform="translate(25.006 97.516) scale(13.2368)"><stop offset="0" stop-color="#00adee"/><stop offset="1" stop-color="#00bcf1"/></linearGradient><linearGradient id="_Linear3" x1="0" y1="0" x2="1" y2="0" gradientUnits="userSpaceOnUse" gradientTransform="translate(55.97 97.516) scale(13.2368)"><stop offset="0" stop-color="#00adee"/><stop offset="1" stop-color="#00bcf1"/></linearGradient><linearGradient id="_Linear4" x1="0" y1="0" x2="1" y2="0" gradientUnits="userSpaceOnUse" gradientTransform="translate(86.934 97.516) scale(13.2369)"><stop offset="0" stop-color="#00adee"/><stop offset="1" stop-color="#00bcf1"/></linearGradient><linearGradient id="_Linear5" x1="0" y1="0" x2="1" y2="0" gradientUnits="userSpaceOnUse" gradientTransform="translate(34.616 111.314) scale(13.2368)"><stop offset="0" stop-color="#00adee"/><stop offset="1" stop-color="#00bcf1"/></linearGradient><linearGradient id="_Linear6" x1="0" y1="0" x2="1" y2="0" gradientUnits="userSpaceOnUse" gradientTransform="translate(66.541 111.314) scale(13.2368)"><stop offset="0" stop-color="#00adee"/><stop offset="1" stop-color="#00bcf1"/></linearGradient><linearGradient id="_Linear7" x1="0" y1="0" x2="1" y2="0" gradientUnits="userSpaceOnUse" gradientTransform="translate(98.465 111.314) scale(13.2369)"><stop offset="0" stop-color="#00adee"/><stop offset="1" stop-color="#00bcf1"/></linearGradient></defs></svg>