<svg viewBox="0 0 140 140" xmlns="http://www.w3.org/2000/svg" fill-rule="evenodd" clip-rule="evenodd" stroke-miterlimit="10"><path d="M94.1 93.6c11.3 0 20.5-9.2 20.5-20.5s-8.201-19.499-19.501-19.499h-.2C93.099 37.301 78.2 23.5 61.4 23.5c-13.3 0-24.7 7.9-29.8 19.3h-.5c-14 0-25.4 11.4-25.4 25.4 0 14 11.4 25.4 25.4 25.4h63z" fill="#fff" fill-rule="nonzero" stroke="#cfe7f7" stroke-width="6" transform="matrix(1.00092 0 0 .99857 .295 3.534)"/><path d="M122.404 94.6c7.1 0 11.896-5.8 11.896-12.9 0-7.1-5.8-12.9-12.9-12.9h-.1c-1.1-10.3-9.8-18.2-20.4-18.2-8.3 0-15.5 5-18.7 12.1h-.3c-8.8 0-15.9 7.1-15.9 15.9s7.1 16 15.9 16h40.504z" fill="#cfe7f7" fill-rule="nonzero" stroke="#cfe7f7" stroke-width="6" transform="matrix(.9956 0 0 1 .29 6.4)"/><path d="M94.1 88.4c-3.2 0-7.1 2.2-8.6 5l-10.1 17.5c-1.6 2.7-.3 4.8 2.9 4.6l8.3-.6c3.2-.2 4.5 1.9 3 4.6l-9.3 17c-1.5 2.8-.7 3.4 1.7 1.4l33.3-27.3c2.4-2 1.9-3.5-1.3-3.4l-12.7.7c-3.2.2-4.5-2-2.9-4.7l5.6-9.7c1.6-2.7.3-5-2.9-5l-7-.1z" fill="#f7b91e" fill-rule="nonzero"/><path d="M28.2 119.4c-.7 0-1.3-.2-1.9-.5-1.8-1.1-2.5-3.4-1.4-5.3L37.4 92c1.1-1.8 3.4-2.5 5.3-1.4 1.8 1.1 2.5 3.4 1.4 5.3l-12.5 21.6c-.7 1.2-2 1.9-3.4 1.9z" fill="url(#_Linear1)" fill-rule="nonzero" transform="translate(0 3.5)"/><path d="M48.7 119.4c-.7 0-1.3-.2-1.9-.5-1.8-1.1-2.5-3.4-1.4-5.3L57.8 92c1.1-1.8 3.4-2.5 5.3-1.4 1.8 1.1 2.5 3.4 1.4 5.3L52 117.4c-.7 1.3-2 2-3.3 2z" fill="url(#_Linear2)" fill-rule="nonzero" transform="translate(0 3.5)"/><defs><linearGradient id="_Linear1" x1="0" y1="0" x2="1" y2="0" gradientUnits="userSpaceOnUse" gradientTransform="translate(24.402 104.703) scale(20.1781)"><stop offset="0" stop-color="#00adee"/><stop offset="1" stop-color="#00bcf1"/></linearGradient><linearGradient id="_Linear2" x1="0" y1="0" x2="1" y2="0" gradientUnits="userSpaceOnUse" gradientTransform="translate(44.839 104.703) scale(20.1781)"><stop offset="0" stop-color="#00adee"/><stop offset="1" stop-color="#00bcf1"/></linearGradient></defs></svg>