<svg viewBox="0 0 141 140" xmlns="http://www.w3.org/2000/svg" fill-rule="evenodd" clip-rule="evenodd" stroke-linejoin="round" stroke-miterlimit="2"><path fill="none" d="M.52 0h140v140H.52z"/><g fill-rule="nonzero"><path d="M104.8 105.3c-5.8 0-10.6-4.7-10.6-10.6 0-1.4.3-2.8.8-4H34.5c-1.8 0-3.3-1.5-3.3-3.3 0-1.8 1.5-3.3 3.3-3.3h70.3c5.8 0 10.6 4.7 10.6 10.6 0 5.9-4.7 10.6-10.6 10.6z" fill="url(#_Linear1)" transform="translate(.52)"/><path d="M126.7 87.2c-5.8 0-10.6-4.7-10.6-10.6 0-1.4.3-2.8.8-4H6c-1.8 0-3.3-1.5-3.3-3.3C2.7 67.5 4.2 66 6 66h120.7c5.8 0 10.6 4.7 10.6 10.6 0 5.8-4.7 10.6-10.6 10.6z" fill="url(#_Linear2)" transform="translate(.52)"/><path d="M104.8 34.7c-5.8 0-10.6 4.7-10.6 10.6 0 1.4.3 2.8.8 4H56.4c-1.8 0-3.3 1.5-3.3 3.3 0 1.8 1.5 3.3 3.3 3.3h48.4c5.8 0 10.6-4.7 10.6-10.6 0-5.9-4.7-10.6-10.6-10.6z" fill="url(#_Linear3)" transform="translate(.52)"/></g><defs><linearGradient id="_Linear1" x1="0" y1="0" x2="1" y2="0" gradientUnits="userSpaceOnUse" gradientTransform="translate(31.165 94.739) scale(84.2432)"><stop offset="0" stop-color="#00adee"/><stop offset="1" stop-color="#00bcf1"/></linearGradient><linearGradient id="_Linear2" x1="0" y1="0" x2="1" y2="0" gradientUnits="userSpaceOnUse" gradientTransform="translate(2.683 76.573) scale(134.634)"><stop offset="0" stop-color="#00adee"/><stop offset="1" stop-color="#00bcf1"/></linearGradient><linearGradient id="_Linear3" x1="0" y1="0" x2="1" y2="0" gradientUnits="userSpaceOnUse" gradientTransform="translate(53.074 45.261) scale(62.3344)"><stop offset="0" stop-color="#00adee"/><stop offset="1" stop-color="#00bcf1"/></linearGradient></defs></svg>